<svg width="24" height="24" viewBox="0 0 24 24"  xmlns="http://www.w3.org/2000/svg">
<path d="M4.17771 1.3381C3.39358 0.553968 2.12223 0.553968 1.33811 1.3381C0.553963 2.12222 0.553963 3.39356 1.33811 4.17769L8.91038 11.75L1.33811 19.3222C0.553963 20.1065 0.553963 21.3777 1.33811 22.1618C2.12223 22.9461 3.39358 22.9461 4.17771 22.1618L11.75 14.5895L19.3222 22.1618C20.1065 22.9461 21.3777 22.9461 22.1618 22.1618C22.9461 21.3777 22.9461 20.1065 22.1618 19.3222L14.5895 11.75L22.1618 4.17769C22.9461 3.39356 22.9461 2.12222 22.1618 1.3381C21.3777 0.553968 20.1065 0.553968 19.3222 1.3381L11.75 8.91038L4.17771 1.3381Z"/>
</svg>
