<svg width="100" height="101" viewBox="0 0 100 101" fill="none" xmlns="http://www.w3.org/2000/svg">
<path d="M45.5195 0.121476C35.8489 1.06113 26.9221 4.624 19.0917 10.6535C15.2743 13.5899 10.3215 19.1104 7.46342 23.6129C6.23012 25.5509 3.82225 30.4841 2.9609 32.8333C2.00166 35.4565 0.964127 39.4892 0.455146 42.6018C-0.151715 46.4191 -0.151715 53.6623 0.455146 57.4797C1.33607 62.8827 2.72598 67.2286 5.0947 72.0639C7.67875 77.3299 10.3607 81.069 14.6674 85.3953C18.9938 89.7021 22.7328 92.384 27.9988 94.968C32.8341 97.3368 37.1801 98.7267 42.5831 99.6076C46.4004 100.214 53.6436 100.214 57.461 99.6076C62.864 98.7267 67.2099 97.3368 72.0452 94.968C77.3112 92.384 81.0503 89.7021 85.3766 85.3953C89.6834 81.069 92.3653 77.3299 94.9493 72.0639C96.672 68.5598 97.5334 66.2694 98.4731 62.7457C99.7064 58.0474 100 55.4829 100 50.0407C100 44.5985 99.7064 42.0341 98.4731 37.3358C97.5334 33.8121 96.672 31.5217 94.9493 28.0175C92.3653 22.7515 89.6834 19.0125 85.3766 14.6862C81.0503 10.3794 77.3112 7.69746 72.0452 5.1134C67.2295 2.74468 62.7661 1.3352 57.5588 0.513C54.6812 0.0627475 48.2602 -0.15259 45.5195 0.121476ZM57.5588 4.40866C67.5819 6.13136 76.1171 10.6535 83.2036 17.9554C89.9574 24.9245 94.1663 33.3227 95.7715 43.0912C96.2805 46.1451 96.2805 53.9364 95.7715 56.9903C94.1663 66.7588 89.9574 75.157 83.2036 82.1261C75.9996 89.5454 67.2491 94.1067 56.9716 95.7902C53.9177 96.2992 46.1264 96.2992 43.0725 95.7902C32.795 94.1067 24.0444 89.5454 16.8404 82.1261C10.0866 75.157 5.87775 66.7588 4.2725 56.9903C3.76352 53.9364 3.76352 46.1451 4.2725 43.0912C5.87775 33.3227 10.0866 24.9245 16.8404 17.9554C24.71 9.85084 33.95 5.36789 45.7153 3.95841C46.0872 3.91925 48.3776 3.89968 50.8051 3.93883C54.1722 3.97798 55.7578 4.09544 57.5588 4.40866Z" fill="#f31"/>
<path d="M31.4392 31.4392C31.0476 31.8308 30.9302 32.1636 30.9302 32.7704C30.9302 33.5535 31.0085 33.6318 39.1913 41.8342L47.472 50.1149L39.1913 58.3956C31.0085 66.598 30.9302 66.6764 30.9302 67.4594C30.9302 68.5752 31.6545 69.2996 32.7703 69.2996C33.5534 69.2996 33.6317 69.2213 41.8341 61.0384L50.1148 52.7577L58.3955 61.0384C66.598 69.2213 66.6763 69.2996 67.4593 69.2996C68.0662 69.2996 68.399 69.1821 68.7905 68.7906C69.182 68.3991 69.2995 68.0663 69.2995 67.4594C69.2995 66.6764 69.2212 66.598 61.0383 58.3956L52.7576 50.1149L61.0383 41.8342C69.2212 33.6318 69.2995 33.5535 69.2995 32.7704C69.2995 31.6546 68.5752 30.9303 67.4593 30.9303C66.6763 30.9303 66.598 31.0086 58.3955 39.1914L50.1148 47.4721L41.8341 39.1914C33.6317 31.0086 33.5534 30.9303 32.7703 30.9303C32.1635 30.9303 31.8307 31.0477 31.4392 31.4392Z" fill="#f31"/>
</svg>
