<svg xmlns="http://www.w3.org/2000/svg" width="24" height="24" viewBox="0 0 24 24">
  <path id="instagram" d="M12,0C8.741,0,8.333.015,7.053.072A8.849,8.849,0,0,0,4.14.63,5.861,5.861,0,0,0,2.015,2.015,5.829,5.829,0,0,0,.63,4.14,8.81,8.81,0,0,0,.072,7.053C.012,8.333,0,8.741,0,12s.015,3.668.072,4.947A8.84,8.84,0,0,0,.63,19.86a5.861,5.861,0,0,0,1.385,2.126A5.829,5.829,0,0,0,4.14,23.37a8.81,8.81,0,0,0,2.913.558C8.333,23.988,8.741,24,12,24s3.668-.015,4.947-.072a8.84,8.84,0,0,0,2.913-.558,6.14,6.14,0,0,0,3.51-3.51,8.81,8.81,0,0,0,.558-2.913C23.988,15.668,24,15.259,24,12s-.015-3.667-.072-4.947A8.84,8.84,0,0,0,23.37,4.14a5.861,5.861,0,0,0-1.384-2.126A5.829,5.829,0,0,0,19.86.63,8.81,8.81,0,0,0,16.947.072C15.668.012,15.26,0,12,0Zm0,2.16c3.2,0,3.585.015,4.85.072a6.628,6.628,0,0,1,2.228.414,3.708,3.708,0,0,1,1.38.9,3.708,3.708,0,0,1,.9,1.38,6.628,6.628,0,0,1,.414,2.227c.057,1.266.071,1.645.071,4.849s-.015,3.585-.072,4.85a6.628,6.628,0,0,1-.414,2.228,3.966,3.966,0,0,1-2.277,2.277,6.628,6.628,0,0,1-2.227.414c-1.266.057-1.646.071-4.85.071s-3.585-.015-4.849-.072a6.628,6.628,0,0,1-2.228-.414,3.708,3.708,0,0,1-1.38-.9,3.708,3.708,0,0,1-.9-1.38,6.628,6.628,0,0,1-.414-2.227C2.175,15.585,2.16,15.2,2.16,12s.015-3.585.072-4.849a6.628,6.628,0,0,1,.414-2.227,3.708,3.708,0,0,1,.9-1.38,3.708,3.708,0,0,1,1.38-.9,6.628,6.628,0,0,1,2.227-.414C8.415,2.175,8.8,2.16,12,2.16Zm0,3.678A6.162,6.162,0,1,0,18.162,12,6.162,6.162,0,0,0,12,5.838ZM12,16a4,4,0,1,1,4-4A4,4,0,0,1,12,16ZM19.845,5.6a1.44,1.44,0,1,1-1.44-1.44A1.44,1.44,0,0,1,19.845,5.6Z" fill="#efecec" fill-rule="evenodd"/>
</svg>
