<svg width="100%" height="100%" viewBox="0 0 200 200" fill="none" xmlns="http://www.w3.org/2000/svg">
<g clip-path="url(#clip0_710_2)">
<path d="M126.968 44.9795H73.0768C71.8487 44.981 70.6714 45.4815 69.803 46.3711C68.9346 47.2608 68.4461 48.4669 68.4446 49.725V172.429L67.8269 172.622L54.6065 176.769C53.98 176.965 53.3032 176.898 52.7249 176.583C52.1465 176.268 51.7137 175.731 51.5216 175.089L12.1969 43.4957C12.0055 42.8539 12.0708 42.1604 12.3783 41.5678C12.6857 40.9751 13.2103 40.5318 13.8367 40.3352L34.2094 33.9446L93.2703 15.4243L113.643 9.0337C113.953 8.93594 114.279 8.90179 114.602 8.93318C114.924 8.96457 115.238 9.06089 115.525 9.21663C115.811 9.37237 116.065 9.58448 116.272 9.8408C116.478 10.0971 116.633 10.3927 116.728 10.7105L126.78 44.3468L126.968 44.9795Z" fill="#F2F2F2"/>
<path d="M133.5 27L126.613 3.80699C126.411 3.13153 126.082 2.50337 125.643 1.95842C125.205 1.41347 124.666 0.962401 124.057 0.630991C123.448 0.299582 122.781 0.0943234 122.095 0.026953C121.409 -0.0404173 120.716 0.0314207 120.057 0.238355L91.4143 9.22006L32.3565 27.7435L3.71387 36.7283C2.38328 37.1469 1.26916 38.0892 0.616061 39.3484C-0.0370401 40.6077 -0.175768 42.0809 0.230334 43.4448L41.6363 181.992C41.9662 183.093 42.6319 184.057 43.5356 184.742C44.4393 185.427 45.5336 185.797 46.6577 185.798C47.178 185.798 47.6954 185.718 48.1925 185.561L67.827 179.404L68.4446 179.208V178.547L67.827 178.74L48.0103 184.957C46.8358 185.323 45.5673 185.198 44.483 184.608C43.3986 184.018 42.587 183.011 42.2262 181.809L0.823386 43.2582C0.64461 42.6624 0.582302 42.0364 0.640027 41.4159C0.697753 40.7955 0.874373 40.1928 1.15979 39.6424C1.4452 39.0919 1.8338 38.6046 2.30332 38.2083C2.77284 37.8119 3.31407 37.5143 3.89601 37.3326L32.5386 28.3477L91.5966 9.82749L120.239 0.842625C120.681 0.704625 121.139 0.634261 121.601 0.63382C122.591 0.636099 123.555 0.96321 124.351 1.56724C125.147 2.17127 125.733 3.02049 126.023 3.99049L133 27.5L133.5 27Z" fill="#3F3D56"/>
<path d="M37.8858 40.4385C37.2905 40.438 36.7111 40.2422 36.2325 39.8797C35.7539 39.5172 35.4013 39.0071 35.2264 38.4242L31.2488 25.114C31.1419 24.7565 31.1048 24.3809 31.1396 24.0087C31.1745 23.6365 31.2805 23.2749 31.4518 22.9447C31.623 22.6145 31.8561 22.322 32.1376 22.0841C32.4192 21.8462 32.7438 21.6674 33.0928 21.558L87.4254 4.51716C88.1303 4.29682 88.8916 4.37197 89.5424 4.72611C90.1933 5.08025 90.6803 5.68446 90.8968 6.40611L94.8744 19.7165C95.0894 20.4385 95.0159 21.2185 94.6703 21.8852C94.3246 22.5518 93.7349 23.0508 93.0306 23.2727L38.6977 40.3135C38.4346 40.3962 38.161 40.4383 37.8858 40.4385V40.4385Z" fill="#6BE067"/>
<path d="M186.103 184.181H81.7238C81.0279 184.181 80.3607 183.897 79.8686 183.393C79.3765 182.889 79.0997 182.205 79.0989 181.492V53.363C79.0997 52.65 79.3765 51.9665 79.8686 51.4623C80.3607 50.9582 81.0279 50.6746 81.7238 50.6738H186.103C186.799 50.6747 187.467 50.9582 187.959 51.4624C188.451 51.9665 188.728 52.65 188.728 53.363V181.492C188.727 182.205 188.451 182.889 187.959 183.393C187.466 183.897 186.799 184.181 186.103 184.181V184.181Z" fill="#F2F2F2"/>
<path d="M138.083 44.3467H73.077C71.6853 44.3487 70.3511 44.916 69.367 45.9242C68.3829 46.9324 67.8291 48.2992 67.8271 49.7249V178.74L68.4448 178.547V49.7249C68.4463 48.4668 68.9348 47.2607 69.8032 46.371C70.6716 45.4814 71.8489 44.9809 73.077 44.9794H138.274L138.083 44.3467ZM194.75 44.3467H73.077C71.6853 44.3487 70.3511 44.916 69.367 45.9242C68.3829 46.9324 67.8291 48.2992 67.8271 49.7249V194.622C67.8291 196.048 68.3829 197.414 69.367 198.423C70.3511 199.431 71.6853 199.998 73.077 200H194.75C196.142 199.998 197.476 199.431 198.46 198.423C199.444 197.414 199.998 196.048 200 194.622V49.7249C199.998 48.2992 199.444 46.9324 198.46 45.9242C197.476 44.916 196.142 44.3487 194.75 44.3467V44.3467ZM199.382 194.622C199.381 195.88 198.892 197.086 198.024 197.976C197.156 198.865 195.978 199.366 194.75 199.367H73.077C71.8489 199.366 70.6716 198.865 69.8032 197.976C68.9348 197.086 68.4463 195.88 68.4448 194.622V49.7249C68.4463 48.4668 68.9348 47.2607 69.8032 46.371C70.6716 45.4814 71.8489 44.9809 73.077 44.9794H194.75C195.978 44.9809 197.156 45.4814 198.024 46.371C198.892 47.2607 199.381 48.4668 199.382 49.7249V194.622Z" fill="#3D563E"/>
<path d="M162.325 58.2667H105.502C104.766 58.2659 104.059 57.9656 103.538 57.4318C103.017 56.898 102.724 56.1743 102.723 55.4194V41.4992C102.724 40.7443 103.017 40.0205 103.538 39.4868C104.059 38.953 104.766 38.6527 105.502 38.6519H162.325C163.061 38.6527 163.768 38.953 164.289 39.4868C164.81 40.0205 165.103 40.7443 165.104 41.4992V55.4194C165.103 56.1743 164.81 56.898 164.289 57.4318C163.768 57.9656 163.061 58.2659 162.325 58.2667V58.2667Z" fill="#6BE067"/>
<path d="M139.353 33.3274C139.353 36.2925 137.012 38.6547 134.176 38.6547C131.34 38.6547 129 36.2925 129 33.3274C129 30.3622 131.34 28 134.176 28C137.012 28 139.353 30.3622 139.353 33.3274Z" stroke="#6BE067" stroke-width="2" fill="none"/>
<path d="M64.3526 8.32737C64.3526 11.2925 62.0125 13.6547 59.1763 13.6547C56.3402 13.6547 54 11.2925 54 8.32737C54 5.36223 56.3402 3 59.1763 3C62.0125 3 64.3526 5.36223 64.3526 8.32737Z" stroke="#6BE067" stroke-width="2" fill="none"/>
</g>
<defs>
<clipPath id="clip0_710_2">
<rect width="200" height="200" fill="white"/>
</clipPath>
</defs>
</svg>
