<svg width="23" height="23" viewBox="0 0 23 23" fill="none" xmlns="http://www.w3.org/2000/svg">
<path fill-rule="evenodd" clip-rule="evenodd" d="M15.643 17.7399C13.6398 19.2002 11.1575 19.8514 8.69343 19.5632C6.22931 19.2749 3.96536 18.0685 2.35513 16.1855C0.744898 14.3025 -0.0926857 11.8821 0.0101743 9.40908C0.113034 6.9361 1.14874 4.59321 2.90981 2.84979C4.67087 1.10636 7.02723 0.0911568 9.50681 0.00755776C11.9864 -0.0760413 14.4061 0.778138 16.2811 2.39897C18.1561 4.01981 19.348 6.28759 19.618 8.748C19.888 11.2084 19.2161 13.6797 17.737 15.6669L17.7701 15.6989L22.5695 20.4869C22.8462 20.763 23.0017 21.1374 23.0017 21.5279C23.0017 21.9183 22.8462 22.2928 22.5695 22.5689C22.2927 22.845 21.9174 23.0001 21.526 23.0001C21.1346 23.0001 20.7593 22.845 20.4825 22.5689L15.6821 17.7799L15.643 17.7399ZM16.7246 9.81488C16.7246 11.1736 16.3207 12.5019 15.564 13.6316C14.8074 14.7614 13.7319 15.642 12.4735 16.1619C11.2152 16.6819 9.83061 16.818 8.49479 16.5529C7.15896 16.2878 5.93193 15.6335 4.96886 14.6727C4.00578 13.7119 3.34992 12.4878 3.08421 11.1552C2.8185 9.8225 2.95487 8.44117 3.47609 7.18584C3.9973 5.93052 4.87994 4.85757 6.01239 4.10268C7.14485 3.3478 8.47626 2.94488 9.83825 2.94488C10.7426 2.94488 11.6381 3.12258 12.4735 3.46783C13.309 3.81308 14.0682 4.31912 14.7076 4.95706C15.3471 5.59499 15.8543 6.35234 16.2004 7.18584C16.5465 8.01935 16.7246 8.9127 16.7246 9.81488V9.81488Z" />
</svg>
