<svg width="24" height="24" viewBox="0 0 24 24" xmlns="http://www.w3.org/2000/svg">
<path d="M10.9219 0.0468771C8.60625 0.271877 6.46875 1.125 4.59375 2.56875C4.00312 3.02344 2.89219 4.1625 2.43281 4.78125C1.87031 5.54063 1.63593 5.925 1.24218 6.72657C0.829684 7.56563 0.623434 8.11407 0.398434 8.95782C-0.553129 12.5859 0.234371 16.3781 2.56875 19.4063C2.9625 19.9172 4.08281 21.0375 4.59375 21.4313C7.62188 23.7656 11.4141 24.5531 15.0422 23.6016C15.8859 23.3766 16.4344 23.1703 17.2734 22.7578C18.525 22.1438 19.4297 21.4969 20.4422 20.4844C21.4266 19.5 22.0453 18.6703 22.6453 17.5078C24.0141 14.8688 24.3563 11.8313 23.6016 8.95782C23.3766 8.11407 23.1703 7.56563 22.7578 6.72657C22.1391 5.46563 21.4969 4.57031 20.4656 3.53438C19.4297 2.50313 18.5344 1.86094 17.2734 1.24219C16.1203 0.675002 15.0516 0.337502 13.8047 0.140627C13.1156 0.0328146 11.5781 -0.0187479 10.9219 0.0468771ZM13.1719 2.48906C14.4844 2.64375 15.9047 3.15 17.0344 3.85313C21.1922 6.45469 22.7391 11.6906 20.6531 16.1016C19.3641 18.8203 16.8234 20.8031 13.8516 21.3984C13.3172 21.5063 12.0844 21.6234 11.9906 21.5766C11.9531 21.5578 11.9391 2.47031 11.9719 2.43281C12.0047 2.4 12.7313 2.43281 13.1719 2.48906Z"/>
</svg>
