<svg xmlns="http://www.w3.org/2000/svg" width="24" height="24" viewBox="0 0 24 24">
  <path id="Caminho_2" data-name="Caminho 2" d="M22.269,0H1.731A1.731,1.731,0,0,0,0,1.731V22.269A1.731,1.731,0,0,0,1.731,24H22.269A1.731,1.731,0,0,0,24,22.269V1.731A1.731,1.731,0,0,0,22.269,0Zm-4.79,9.356q.008.177.008.356A7.783,7.783,0,0,1,9.65,17.549h0a7.8,7.8,0,0,1-4.222-1.237,5.6,5.6,0,0,0,.657.038,5.527,5.527,0,0,0,3.421-1.179,2.757,2.757,0,0,1-2.573-1.913,2.745,2.745,0,0,0,1.244-.047,2.755,2.755,0,0,1-2.21-2.7c0-.012,0-.024,0-.035a2.735,2.735,0,0,0,1.247.344,2.757,2.757,0,0,1-.853-3.677,7.82,7.82,0,0,0,5.677,2.878,2.756,2.756,0,0,1,4.694-2.512,5.525,5.525,0,0,0,1.749-.669,2.765,2.765,0,0,1-1.211,1.523,5.493,5.493,0,0,0,1.582-.434,5.6,5.6,0,0,1-1.374,1.426Zm0,0" transform="translate(0)"/>
</svg>
